<svg fill="none" height="400" viewBox="0 0 400 400" width="400" xmlns="http://www.w3.org/2000/svg"><g stroke="#000" stroke-linecap="round" stroke-linejoin="round" stroke-opacity=".9" stroke-width="16"><path d="m245.2 134.289c48.92-60.3035-26.175-52.0716-37.074-57.526-3.83-1.914-7.598-20.3925-16.121-16.1255-13.125 6.5661-12.01 40.7455-13.434 52.1475-.773 6.206-9.438 15.092-12.286 21.504-4.546 10.232-9.541 22.403-17.892 35.113-8.35 12.711-25.801 22.565-34.536 32.279-37.175 41.321-21.2366 89.898 19.578 121.311 41.281 31.772 213.696 19.914 164.964-53.223"/><path d="m225.903 162.283c12.115 44.344-5.276 90.653-5.276 134.074 0 4.997 9.916.175 14.774 1.068"/><path d="m162.667 208.879c9.752 1.436 18.652 8.595 25.555 15.287 34.36 33.315-9.534 55.704-11.965 67.481-.549 2.664 10.778 4.498 13.053 4.742"/><path d="m211.536 62.994c6.625-6.2145 7.889 4.6628 9.091 10.6438"/></g></svg>