<svg enable-background="new 0 0 48 48" viewBox="0 0 48 48" xmlns="http://www.w3.org/2000/svg"><path d="m41 6h-34c-.6 0-1 .4-1 1v35h36v-35c0-.6-.4-1-1-1z" fill="#cfd8dc"/><path d="m8 13h32v27h-32z" fill="#263238"/><g fill="#76ff03"><path d="m22 27.6c-.1 1.1-.4 1.9-1 2.5s-1.4.9-2.5.9-2-.4-2.6-1.1-.9-1.8-.9-3.1v-1.6c0-1.3.3-2.4.9-3.1s1.5-1.1 2.6-1.1 1.9.3 2.5.9.9 1.4 1 2.6h-2c0-.7-.1-1.2-.3-1.4-.2-.3-.6-.4-1.1-.4s-.9.2-1.2.6c-.2.4-.3 1-.4 1.8v1.8c0 1 .1 1.6.3 2s.6.5 1.1.5.9-.1 1.1-.4.3-.7.3-1.4z"/><path d="m24 24c0-.3.1-.5.3-.7s.4-.3.7-.3.5.1.7.3.3.4.3.7-.1.5-.3.7-.4.3-.7.3-.5-.1-.7-.3-.3-.4-.3-.7z"/><path d="m24 30c0-.3.1-.5.3-.7s.4-.3.7-.3.5.1.7.3.3.4.3.7-.1.5-.3.7-.4.3-.7.3-.5-.1-.7-.3-.3-.4-.3-.7z"/><path d="m28 21h2l3 10h-2z"/></g><circle cx="13.5" cy="9.5" fill="#90a4ae" r="1.5"/><circle cx="9.5" cy="9.5" fill="#90a4ae" r="1.5"/></svg>